<svg xmlns="http://www.w3.org/2000/svg" version="1.1" xmlns:xlink="http://www.w3.org/1999/xlink"
  xmlns:svgjs="http://svgjs.dev/svgjs" width="1000" height="196" viewBox="0 0 1000 196">
  <g transform="matrix(1,0,0,1,-0.6060603477160953,-0.09474094546284562)">
    <svg viewBox="0 0 396 78" data-background-color="#ffffff" preserveAspectRatio="xMidYMid meet"
      height="196" width="1000" xmlns="http://www.w3.org/2000/svg"
      xmlns:xlink="http://www.w3.org/1999/xlink">
      <g id="tight-bounds" transform="matrix(1,0,0,1,0.24000010230446378,0.03770302931684455)">
        <svg viewBox="0 0 395.52 77.92458371176289" height="77.92458371176289" width="395.52">
          <g>
            <svg viewBox="0 0 547.1916276786967 107.80663379203175" height="77.92458371176289"
              width="395.52">
              <g>
                <rect width="7.034814393496017" height="93.6092333939494" x="126.22106879960901"
                  y="7.0987001990411756" fill="#001f3f" opacity="1" stroke-width="0"
                  stroke="transparent" fill-opacity="1" class="rect-o-0"
                  data-fill-palette-color="primary" rx="1%" id="o-0" data-palette-color="#001f3f"></rect>
              </g>
              <g transform="matrix(1,0,0,1,151.6716276786967,14.899469648536957)">
                <svg viewBox="0 0 395.5199999999999 78.00769449495783" height="78.00769449495783"
                  width="395.5199999999999">
                  <g id="textblocktransform">
                    <svg viewBox="0 0 395.5199999999999 78.00769449495783"
                      height="78.00769449495783" width="395.5199999999999" id="textblock">
                      <g>
                        <svg viewBox="0 0 395.5199999999999 78.00769449495783"
                          height="78.00769449495783" width="395.5199999999999">
                          <g transform="matrix(1,0,0,1,0,0)">
                            <svg width="395.5199999999999"
                              viewBox="0.9800000190734863 -37.54999923706055 192.61000061035156 37.991607666015625"
                              height="78.00769449495783" data-palette-color="#001f3f">
                              <path
                                d="M35.33-35.01L35.33-28.66 21.34-28.66 21.34 0 14.99 0 14.99-28.66 0.98-28.66 0.98-35.01 35.33-35.01ZM55.34-14.4L70.29 0 61.13 0 48.34-12.35Q47.26-13.33 47.34-14.79L47.34-14.79Q47.39-15.48 47.69-16.08 48-16.67 48.53-17.09L48.53-17.09 60.13-26.44 70.29-26.44 55.34-14.4ZM45.73-37.55L45.73 0 39.38 0 39.38-37.55 45.73-37.55ZM129.07-35.01L135.51-35.01 129.66-2.2Q129.46-1.22 128.78-0.51 128.09 0.2 127.12 0.39L127.12 0.39Q126.12 0.56 125.22 0.17 124.33-0.22 123.82-1.05L123.82-1.05 112.2-20.14 100.55-1.05Q100.14-0.34 99.42 0.05 98.7 0.44 97.87 0.44L97.87 0.44Q96.72 0.44 95.84-0.29 94.96-1.03 94.77-2.2L94.77-2.2 88.86-35.01 95.31-35.01 99.5-11.89 109.51-27.86Q109.93-28.56 110.65-28.96 111.37-29.35 112.2-29.35L112.2-29.35Q113.03-29.35 113.74-28.96 114.45-28.56 114.91-27.86L114.91-27.86 124.87-11.89 129.07-35.01ZM146.5-37.55L146.5-31.81 140.15-31.81 140.15-37.55 146.5-37.55ZM146.5-26.39L146.5 0 140.15 0 140.15-26.39 146.5-26.39ZM168.64-14.4L183.58 0 174.43 0 161.63-12.35Q160.56-13.33 160.63-14.79L160.63-14.79Q160.68-15.48 160.99-16.08 161.29-16.67 161.83-17.09L161.83-17.09 173.43-26.44 183.58-26.44 168.64-14.4ZM159.02-37.55L159.02 0 152.67 0 152.67-37.55 159.02-37.55ZM193.59-37.55L193.59-31.81 187.24-31.81 187.24-37.55 193.59-37.55ZM193.59-26.39L193.59 0 187.24 0 187.24-26.39 193.59-26.39Z"
                                opacity="1" transform="matrix(1,0,0,1,0,0)" fill="#001f3f"
                                class="undefined-text-0" data-fill-palette-color="primary"
                                id="text-0"></path>
                            </svg>
                          </g>
                        </svg>
                      </g>
                    </svg>
                  </g>
                </svg>
              </g>
              <g>
                <svg viewBox="0 0 107.80532431401735 107.80663379203175" height="107.80663379203175"
                  width="107.80532431401735">
                  <g>
                    <svg xmlns="http://www.w3.org/2000/svg"
                      xmlns:xlink="http://www.w3.org/1999/xlink" version="1.1" x="0" y="0"
                      viewBox="5.412825107574463 5.195577621459961 79.76930236816406 79.77027130126953"
                      enable-background="new 0 0 90 90" xml:space="preserve"
                      height="107.80663379203175" width="107.80532431401735" class="icon-icon-0"
                      data-fill-palette-color="accent" id="icon-0"><path d="M54.624 83.27c-10.792 1.801-22.246-1.411-30.727-8.272-8.062-6.522-13.088-16.744-12.728-27.17 0.349-10.096 5.499-20.182 14.078-25.707 8.769-5.647 20.783-5.62 29.498 0.129 8.154 5.379 12.661 15.857 9.907 25.391-1.424 4.931-4.572 9.475-9.052 12.082-4.663 2.714-10.561 3.268-15.615 1.341-4.544-1.733-8.418-5.448-9.851-10.154-1.47-4.826-0.243-10.416 3.327-14.027 3.452-3.492 8.998-4.743 13.484-2.567 4.259 2.065 6.884 7.148 5.307 11.755-0.85 2.483-2.859 4.611-5.423 5.317-2.69 0.741-5.774-0.221-7.439-2.493-1.629-2.222-1.495-5.503 0.597-7.389 1.054-0.95 2.599-1.429 3.984-1.015 0.41 0.122 2.233 0.566 2.058 1.209 0.087-0.652-1.341-0.82-1.755-0.934-1.29-0.356-2.733 0.004-3.719 0.904-1.739 1.586-1.995 4.459-0.597 6.34 1.417 1.906 4.102 2.721 6.348 1.971 2.287-0.765 3.875-3.013 4.245-5.344 0.746-4.703-3.812-8.759-8.323-8.569-4.774 0.201-8.548 4.373-9.111 8.971-1.056 8.621 8.8 14.488 16.466 12.536 8.546-2.177 12.86-12.372 10.766-20.465-2.34-9.045-11.891-14.664-20.877-14.543-9.785 0.131-18.28 7.23-21.955 16.011-4.038 9.649-2.194 21.17 4.201 29.364 6.485 8.309 16.93 13.113 27.352 13.664 5.766 0.305 11.749-0.537 17.004-3.006 4.955-2.328 8.907-6.258 11.976-10.734 6.303-9.194 8.662-20.938 6.135-31.824C79.845 17.355 61.052 3.689 41.936 5.329 23.164 6.939 7.154 22.991 5.551 41.756c-0.918 10.74 2.777 21.76 9.928 29.817 7.078 7.976 17.424 12.875 28.071 13.353 6.118 0.275 12.303-0.876 17.903-3.359-2.472 0.844-4.993 1.695-7.622 1.838 0.506-0.028 0.982-0.246 1.492-0.242-1.79-0.014-3.465 0.776-5.242 0.87 1.034-0.055 2.103-0.271 3.095-0.566 0.337-0.101 1.458-0.578 1.755-0.242-0.207-0.235-1.358 0.182-1.613 0.243-0.926 0.221-1.953 0.452-2.902 0.51 0.426-0.026 4.536-0.711 4.53-0.755 0.008 0.065-4.022 0.607-4.613 0.769 0.714-0.196 1.505-0.245 2.235-0.367 0.292-0.048 2.164-0.591 2.374-0.402C54.91 83.194 54.661 83.264 54.624 83.27 43.928 85.055 57.114 82.88 54.624 83.27z" fill="#10b981" data-fill-palette-color="accent"></path></svg>
                  </g>
                </svg>
              </g>
            </svg>
          </g>
          <defs></defs>
        </svg>
        <rect width="395.52" height="77.92458371176289" fill="none" stroke="none"
          visibility="hidden"></rect>
      </g>
    </svg>
  </g>
</svg>